<svg width="687" height="24" fill="none" xmlns="http://www.w3.org/2000/svg"><path d="M51.06 13.06a1.5 1.5 0 0 0 0-2.12l-9.545-9.547a1.5 1.5 0 1 0-2.122 2.122L47.88 12l-8.486 8.485a1.5 1.5 0 1 0 2.122 2.122l9.546-9.546Zm422.001 0a1.502 1.502 0 0 0 0-2.12l-9.546-9.547a1.5 1.5 0 0 0-2.122 2.122L469.879 12l-8.486 8.485a1.501 1.501 0 0 0 2.122 2.122l9.546-9.546Zm213 0a1.502 1.502 0 0 0 0-2.12l-9.546-9.547a1.5 1.5 0 0 0-2.122 2.122L682.879 12l-8.486 8.485a1.501 1.501 0 0 0 2.122 2.122l9.546-9.546Zm-423 0a1.502 1.502 0 0 0 0-2.12l-9.546-9.547a1.5 1.5 0 0 0-2.122 2.122L259.879 12l-8.486 8.485a1.501 1.501 0 0 0 2.122 2.122l9.546-9.546ZM0 13.5h50v-3H0v3Zm422 0h50v-3h-50v3Zm213 0h50v-3h-50v3Zm-423 0h50v-3h-50v3Z" fill="#456E6D"/></svg>