<svg width="60" height="60" fill="none" xmlns="http://www.w3.org/2000/svg"><g filter="url('#filter0_d_114_337')"><path fill="#fff" d="M7.021 3.184h46.32V52H7.021z"/><path fill-rule="evenodd" clip-rule="evenodd" d="M7.843 0C5.721 0 4 1.669 4 3.725v44.551C4 50.332 5.721 52 7.843 52h44.314C54.28 52 56 50.332 56 48.276V3.725C56 1.669 54.28 0 52.157 0H7.843Zm8.068 20.107a3.89 3.89 0 0 1 3.89 3.89v15.63a3.89 3.89 0 1 1-7.781 0v-15.63a3.89 3.89 0 0 1 3.891-3.89Zm4.404-7.24c0 2.246-1.69 4.044-4.402 4.044h-.051c-2.612 0-4.3-1.798-4.3-4.045 0-2.297 1.74-4.045 4.402-4.045s4.3 1.748 4.35 4.046Zm11.575 26.77a3.881 3.881 0 0 1-3.881 3.88 3.879 3.879 0 0 1-3.884-3.893c.017-4.287.038-11.153.026-15.542-.006-2.168 1.77-3.974 3.939-3.974h3.044c.418 0 .756.338.756.756 0 .754 1.067 1.099 1.628.595 1.156-1.036 2.837-1.901 5.385-1.901 5.12 0 8.958 3.346 8.958 10.536v9.533a3.89 3.89 0 1 1-7.78 0v-8.632c0-3.148-1.128-5.294-3.942-5.294-2.15 0-3.43 1.447-3.993 2.846-.206.499-.256 1.2-.256 1.898v9.191Z" fill="#456E6D"/></g><defs><filter id="filter0_d_114_337" x="0" y="0" width="60" height="60" filterUnits="userSpaceOnUse" color-interpolation-filters="sRGB"><feFlood flood-opacity="0" result="BackgroundImageFix"/><feColorMatrix in="SourceAlpha" values="0 0 0 0 0 0 0 0 0 0 0 0 0 0 0 0 0 0 127 0" result="hardAlpha"/><feOffset dy="4"/><feGaussianBlur stdDeviation="2"/><feComposite in2="hardAlpha" operator="out"/><feColorMatrix values="0 0 0 0 0 0 0 0 0 0 0 0 0 0 0 0 0 0 0.25 0"/><feBlend in2="BackgroundImageFix" result="effect1_dropShadow_114_337"/><feBlend in="SourceGraphic" in2="effect1_dropShadow_114_337" result="shape"/></filter></defs></svg>