<svg width="60" height="57" fill="none" xmlns="http://www.w3.org/2000/svg"><g filter="url('#filter0_d_114_337')"><path fill="#fff" d="M7 3h46v46H7z"/><path fill-rule="evenodd" clip-rule="evenodd" d="M7.817 0C5.709 0 4 1.573 4 3.51v41.981C4 47.43 5.71 49 7.817 49h44.007c2.108 0 3.817-1.571 3.817-3.51V3.51c0-1.937-1.709-3.51-3.817-3.51H7.817Zm8.012 18.947a3.864 3.864 0 0 1 3.864 3.864v14.332a3.864 3.864 0 0 1-7.728 0V22.81a3.864 3.864 0 0 1 3.864-3.864Zm4.373-6.823c0 2.117-1.677 3.811-4.372 3.811h-.05c-2.594 0-4.27-1.694-4.27-3.81 0-2.166 1.727-3.812 4.372-3.812 2.643 0 4.27 1.646 4.32 3.811Zm11.495 25.029a3.854 3.854 0 1 1-7.71-.019c.016-3.983.036-10.163.025-14.236-.006-2.154 1.762-3.95 3.916-3.95h3.032c.407 0 .738.33.738.737 0 .725 1.01 1.063 1.557.587 1.15-1 2.833-1.842 5.407-1.842 5.084 0 8.896 3.153 8.896 9.928v8.785a3.863 3.863 0 1 1-7.727 0v-7.937c0-2.965-1.119-4.988-3.915-4.988-2.135 0-3.406 1.364-3.964 2.682-.205.47-.255 1.13-.255 1.789v8.464Z" fill="#456E6D"/></g><defs><filter id="filter0_d_114_337" x="0" y="0" width="59.641" height="57" filterUnits="userSpaceOnUse" color-interpolation-filters="sRGB"><feFlood flood-opacity="0" result="BackgroundImageFix"/><feColorMatrix in="SourceAlpha" values="0 0 0 0 0 0 0 0 0 0 0 0 0 0 0 0 0 0 127 0" result="hardAlpha"/><feOffset dy="4"/><feGaussianBlur stdDeviation="2"/><feComposite in2="hardAlpha" operator="out"/><feColorMatrix values="0 0 0 0 0 0 0 0 0 0 0 0 0 0 0 0 0 0 0.25 0"/><feBlend in2="BackgroundImageFix" result="effect1_dropShadow_114_337"/><feBlend in="SourceGraphic" in2="effect1_dropShadow_114_337" result="shape"/></filter></defs></svg>