<svg width="55" height="57" fill="none" xmlns="http://www.w3.org/2000/svg"><path fill-rule="evenodd" clip-rule="evenodd" d="M4.065 0C1.82 0 0 1.803 0 4.024v48.133c0 2.222 1.82 4.023 4.065 4.023h46.87c2.245 0 4.065-1.802 4.065-4.024V4.024C55 1.803 53.18 0 50.935 0H4.065Zm8.533 21.723a4.115 4.115 0 0 1 4.115 4.115V42.9a4.115 4.115 0 0 1-8.23 0V25.838a4.115 4.115 0 0 1 4.115-4.115Zm4.658-7.822c0 2.427-1.786 4.37-4.656 4.37h-.054c-2.762 0-4.548-1.943-4.548-4.37 0-2.482 1.84-4.37 4.657-4.37 2.815 0 4.547 1.888 4.601 4.37Zm12.243 29.01a4.105 4.105 0 0 1-4.105 4.104 4.102 4.102 0 0 1-4.108-4.116c.018-4.654.04-12.203.027-16.972-.007-2.293 1.872-4.203 4.165-4.203h3.215c.445 0 .806.36.806.806 0 .807 1.15 1.174 1.748.631 1.222-1.11 2.993-2.031 5.67-2.031 5.414 0 9.474 3.615 9.474 11.384V42.9a4.115 4.115 0 1 1-8.23 0v-9.415c0-3.4-1.19-5.72-4.168-5.72-2.274 0-3.629 1.565-4.223 3.076-.218.539-.271 1.296-.271 2.05V42.91Z" fill="#C3A9B5"/></svg>