<svg width="55" height="55" fill="none" xmlns="http://www.w3.org/2000/svg"><path fill-rule="evenodd" clip-rule="evenodd" d="M4.038 0C1.808 0 0 1.754 0 3.914v46.814c0 2.16 1.809 3.913 4.038 3.913h46.564c2.23 0 4.039-1.753 4.039-3.914V3.914C54.64 1.754 52.833 0 50.602 0H4.038Zm8.478 21.128a4.088 4.088 0 0 1 4.088 4.088v16.423a4.088 4.088 0 0 1-8.176 0V25.216a4.088 4.088 0 0 1 4.088-4.088Zm4.627-7.608c0 2.36-1.775 4.25-4.625 4.25h-.054c-2.744 0-4.518-1.89-4.518-4.25 0-2.414 1.828-4.25 4.626-4.25 2.796 0 4.518 1.836 4.571 4.25Zm12.163 28.13a4.078 4.078 0 0 1-4.078 4.077 4.076 4.076 0 0 1-4.08-4.09c.017-4.505.039-11.72.026-16.332-.006-2.278 1.861-4.176 4.139-4.176h3.199c.439 0 .795.356.795.795 0 .791 1.12 1.154 1.71.625 1.215-1.09 2.981-1.998 5.659-1.998 5.379 0 9.412 3.516 9.412 11.072v10.016a4.088 4.088 0 0 1-8.175 0v-9.07c0-3.308-1.184-5.563-4.142-5.563-2.26 0-3.605 1.52-4.196 2.99-.216.525-.27 1.261-.27 1.995v9.658Z" fill="#C3A9B5"/></svg>